<svg xmlns="http://www.w3.org/2000/svg" xmlns:xlink="http://www.w3.org/1999/xlink" viewBox="0 0 108 29" fill="#fff" fill-rule="evenodd" stroke="#000" stroke-linecap="round" stroke-linejoin="round"><use xlink:href="#A" x=".5" y=".5"/><symbol id="A" overflow="visible"><g stroke="none" fill-rule="nonzero"><path d="M27.238 7.515L22.541 0H4.697L0 7.515V27.24h27.238z" fill="#a98258"/><path d="M.001 7.515h27.237L22.541 0H4.697z" fill="#daae86"/><path d="M10.802 24.421v2.808h5.636v-2.808l-.939.939-1.879-1.879-1.879 1.879z" fill="#d8b18b"/><path d="M9.393 14.089h8.454v7.515H9.393z" fill="#e8d5b2"/><path d="M14.09 19.256h-2.808a.47.47 0 0 0-.47.47.47.47 0 0 0 .47.47h2.808a.47.47 0 0 0 .47-.47.47.47 0 0 0-.47-.47zm1.879 0h-.47a.47.47 0 0 0-.47.47.47.47 0 0 0 .47.47h.47a.47.47 0 0 0 .47-.47.47.47 0 0 0-.47-.47zm-2.808-2.808h2.808a.47.47 0 0 0 .47-.47.47.47 0 0 0-.47-.47H13.16a.47.47 0 0 0-.47.47.47.47 0 0 0 .47.47zm2.808.939h-.939a.47.47 0 0 0-.47.47.47.47 0 0 0 .47.47h.939a.47.47 0 0 0 .47-.47.47.47 0 0 0-.47-.47zm-4.697.939h.939a.47.47 0 0 0 .47-.47.47.47 0 0 0-.47-.47h-.939a.47.47 0 0 0-.47.47.47.47 0 0 0 .47.47zm0-1.879h.47a.47.47 0 0 0 .47-.47.47.47 0 0 0-.47-.47h-.47a.47.47 0 0 0-.47.47.47.47 0 0 0 .47.47zm2.019 1.08c-.087.088-.137.205-.14.328s.046.244.14.329c.088.086.205.136.328.14.254-.012.457-.215.47-.47-.002-.124-.051-.243-.136-.333-.189-.173-.478-.173-.667 0z" fill="#d4c3a5"/><path d="M10.802.001h5.636v7.515h-5.636z" fill="#f4d5bd"/><path d="M16.438 10.812V7.524h-5.636v3.288l.939-.939 1.879 1.879 1.879-1.879z" fill="#d8b18b"/><path d="M40.689 6.171c1.738 0 2.938 1.201 2.938 2.938v3.777c0 1.738-1.201 2.938-2.938 2.938h-4.635v5.257h-2.98V6.171zm1.646 3.228c0-1.283-.746-2.028-2.028-2.028h-5.959v12.498h.414v-5.257h5.546c1.283 0 2.028-.746 2.028-2.028zm-2.028-1.614c1.034 0 1.614.579 1.614 1.614v3.196c0 1.034-.579 1.614-1.614 1.614h-5.545V7.794zm-.373 5.215c.455 0 .704-.248.704-.704V9.688c0-.455-.248-.704-.704-.704h-3.89v4.014zm6.924 8.071h-3.083l4.8-14.899h3.486l4.8 14.899h-3.216l-.972-3.353h-4.823zm8.235-1.201L51.283 7.371h-1.904l-3.89 12.498h.393l1.034-3.353h6.779l1.014 3.353zM49.61 7.783l-2.586 8.328h6.539l-2.545-8.328zm.683 1.646l1.573 5.462h-3.158zm16.325 11.64l-2.402-5.525h-2.402v5.525h-2.977V6.171h7.594c1.738 0 2.938 1.201 2.938 2.938v3.486c0 1.407-.786 2.463-2.028 2.814l2.483 5.65zm1.303-1.201l-2.402-5.504h.538c1.283 0 2.028-.746 2.028-2.028V9.397c0-1.283-.746-2.028-2.028-2.028h-5.939v12.498h.414v-5.502h4.551l2.402 5.504zm-.248-7.532c0 1.034-.579 1.614-1.614 1.614h-5.525V7.784h5.525c1.034 0 1.614.579 1.614 1.614zm-1.985.436c.455 0 .704-.248.704-.704v-2.38c0-.455-.248-.704-.704-.704h-3.87v3.777zm13.864-3.167c0-.455-.248-.704-.704-.704h-3.218c-.455 0-.704.248-.704.704v8.038c0 .455.248.703.704.703h3.228c.455 0 .704-.248.704-.703v-1.821h2.98v2.402c0 1.738-1.201 2.938-2.938 2.938h-4.729c-1.738 0-2.938-1.201-2.938-2.938V9.037c0-1.738 1.201-2.938 2.938-2.938h4.718c1.738 0 2.938 1.201 2.938 2.938v2.402h-2.979zm-.331-1.904c1.034 0 1.614.579 1.614 1.614v.952h.412v-.952c0-1.283-.746-2.028-2.028-2.028h-3.973c-1.283 0-2.028.746-2.028 2.028v8.619c0 1.283.746 2.028 2.028 2.028h3.973c1.283 0 2.028-.746 2.028-2.028v-.91h-.414v.91c0 1.034-.579 1.614-1.614 1.614h-3.973c-1.034 0-1.614-.579-1.614-1.614V9.316c0-1.034.579-1.614 1.614-1.614zm15.705-1.53v2.814h-6.766v3.062h5.484v2.814h-5.484v3.393h6.766v2.814h-9.747V6.171zm-1.283 13.697v-.413h-6.766v-5.794h5.484v-.414h-5.484V7.786h6.766v-.413h-7.181v12.498zm6.891-13.698v12.086h6.249v2.814h-9.229v-14.9zm4.966 13.699v-.413h-6.249V7.371h-.413v12.498z" fill="#a98258"/></g></symbol></svg>