<svg xmlns="http://www.w3.org/2000/svg" xmlns:xlink="http://www.w3.org/1999/xlink" viewBox="0 0 528 529" fill="#fff" fill-rule="evenodd" stroke="#000" stroke-linecap="round" stroke-linejoin="round"><use xlink:href="#A" x="8" y="8"/><symbol id="A" overflow="visible"><g stroke="none" fill-rule="nonzero"><path d="M0 76.8C0 34.253 34.253 0 76.8 0h358.4C477.747 0 512 34.253 512 76.8v358.4c0 42.547-34.253 76.8-76.8 76.8H76.8C34.253 512 0 477.747 0 435.2z" fill="#005a9c"/><path d="M305.92 241.6l37.12-67.68c.16-.32.16-.48.16-.8V160c0-.96-.64-1.6-1.6-1.6H239.68c-.64 0-1.28.48-1.6 1.12l-38.72 124.8-38.4-124.8c-.182-.649-.766-1.103-1.44-1.12h-27.2c-.48 0-.96.32-1.28.64a2.24 2.24 0 0 0 0 1.44l15.36 41.6-27.2 82.08-36.8-124.8c-.32-.64-.8-1.12-1.6-1.12H53.28c-.48 0-.96.32-1.28.64-.16.32-.32.8-.16 1.28l64.48 217.6c.16.64.8 1.12 1.6 1.12s1.28-.48 1.6-1.12L160 248.64l37.44 128.96c.16.64.8 1.12 1.6 1.12s1.28-.48 1.6-1.12l60.48-192.8h44l-37.44 62.88c-.16.32-.16.48-.16.8v14.88c0 .96.64 1.6 1.6 1.6h21.12c14.88 0 25.6 18.4 25.6 43.52 0 26.24-8.48 39.04-25.92 39.04-23.52 0-30.4-24.64-30.4-25.6a1.63 1.63 0 0 0-.8-.96c-.48-.16-.96-.16-1.28 0l-19.68 9.92c-.8.32-.96 1.28-.8 1.92 11.52 28 29.6 42.24 53.6 42.24 15.552 0 56-12 56-67.2 0-50.88-31.36-64-39.68-66.56zm60 39.52h.16c.8-.16 1.28-.8 1.6-1.6 2.56-66.08 23.68-89.6 41.12-89.6 19.2 0 31.68 24.64 31.68 24.96.32.48.8.8 1.28.8.48.16 1.12-.16 1.6-.8l16.96-26.4c.16-.32.32-.8.16-1.12l-5.28-28.16a1.71 1.71 0 0 0-1.28-1.28c-.64-.16-1.28.32-1.6.8l-14.88 27.2c-11.2-20.32-26.72-25.6-34.56-25.6-13.92 0-31.52 11.2-38.08 32-13.12 41.6-.16 86.88 0 87.2a1.6 1.6 0 0 0 1.44 1.12zm91.52 32a1.44 1.44 0 0 0-1.6-1.28c-.96 0-1.6.48-1.6 1.12-.16.32-10.72 40-48 40-37.44 0-50.72-36-50.88-36.32-.32-.8-1.12-1.12-1.92-.96-.8.32-1.28 1.12-1.12 1.888 3.2 13.6 16.96 57.92 56.96 57.92 38.4 0 50.72-39.04 50.72-39.52v-.64l-2.72-22.368z"/></g></symbol></svg>